<?xml version="1.0" encoding="iso-8859-1"?>
<!-- Generator: Adobe Illustrator 18.1.1, SVG Export Plug-In . SVG Version: 6.00 Build 0)  -->
<svg xmlns="http://www.w3.org/2000/svg" xmlns:xlink="http://www.w3.org/1999/xlink" version="1.1" id="Capa_1" x="0px" y="0px" viewBox="0 0 591.6 591.6" style="enable-background:new 0 0 591.6 591.6;" xml:space="preserve" width="512px" height="512px">
<g>
	<g>
		<path d="M295.8,0c-5.712,0-10.2,4.488-10.2,10.2v102c0,5.712,4.488,10.2,10.2,10.2s10.2-4.488,10.2-10.2v-102    C306,4.488,301.512,0,295.8,0z" />
		<path d="M295.8,469.2c-5.712,0-10.2,4.488-10.2,10.2v102c0,5.712,4.488,10.2,10.2,10.2s10.2-4.488,10.2-10.2v-102    C306,473.688,301.512,469.2,295.8,469.2z"/>
		<path d="M581.4,285.6h-102c-5.712,0-10.2,4.488-10.2,10.2s4.488,10.2,10.2,10.2h102c5.712,0,10.2-4.488,10.2-10.2    S587.112,285.6,581.4,285.6z"/>
		<path d="M122.4,295.8c0-5.712-4.488-10.2-10.2-10.2h-102c-5.712,0-10.2,4.488-10.2,10.2S4.488,306,10.2,306h102    C117.912,306,122.4,301.512,122.4,295.8z" />
		<path d="M432.888,418.404c-4.08-4.08-10.404-4.08-14.484,0c-4.08,4.08-4.08,10.404,0,14.484l72.216,72.216    c2.04,2.04,4.692,3.06,7.14,3.06c2.448,0,5.304-1.02,7.14-3.06c4.08-4.08,4.08-10.404,0-14.484L432.888,418.404z" />
		<path d="M100.98,86.7c-4.08-4.08-10.404-4.08-14.484,0s-4.08,10.404,0,14.484l72.216,72.216c2.04,2.04,4.692,3.06,7.14,3.06    s5.304-1.02,7.14-3.06c4.08-4.08,4.08-10.404,0-14.484L100.98,86.7z" />
		<path d="M158.712,418.404L86.496,490.62c-4.08,4.08-4.08,10.404,0,14.484c2.04,2.04,4.692,3.06,7.14,3.06s5.304-1.02,7.14-3.06    l72.216-72.216c4.08-4.08,4.08-10.404,0-14.484C169.116,414.528,162.792,414.528,158.712,418.404z"/>
		<path d="M425.544,176.256c2.652,0,5.304-1.02,7.14-3.06L504.9,100.98c4.08-4.08,4.08-10.404,0-14.484    c-4.08-4.08-10.404-4.08-14.484,0L418.2,158.712c-4.08,4.08-4.08,10.404,0,14.484    C420.444,175.236,423.096,176.256,425.544,176.256z" />
	</g>
</g>

</svg>
